<?xml version="1.0" standalone="no"?><!DOCTYPE svg PUBLIC "-//W3C//DTD SVG 1.1//EN" "http://www.w3.org/Graphics/SVG/1.1/DTD/svg11.dtd"><svg t="1668825155948" class="icon" viewBox="0 0 1024 1024" version="1.1" xmlns="http://www.w3.org/2000/svg" p-id="11723" xmlns:xlink="http://www.w3.org/1999/xlink" width="16" height="16"><path d="M821.673945 202.326055c-170.763199-170.761152-448.584692-170.761152-619.346867 0-170.763199 170.763199-170.763199 448.584692 0 619.346867 170.762175 170.763199 448.582645 170.763199 619.346867 0C992.435097 650.910747 992.435097 373.089253 821.673945 202.326055zM777.236873 777.234827c-146.255015 146.255015-384.239198 146.231479-530.472723 0-146.252968-146.255015-146.252968-384.217708 0.002047-530.470677 146.231479-146.231479 384.215662-146.255015 530.470677 0C923.468352 392.998699 923.468352 631.002324 777.236873 777.234827z" p-id="11724"></path><path d="M735.871767 482.116389l-191.777815-0.310062 1.040702-190.250018c0.10847-17.274432-13.82589-31.343869-31.100322-31.452339-17.276479-0.110517-31.365358 13.845333-31.454386 31.100322l-1.062192 190.492542-188.921767-0.286526c-17.297968 0-31.321356 13.934361-31.321356 31.231305-0.023536 17.274432 13.957897 31.299867 31.233352 31.322379l188.656731 0.286526-1.01819 188.900278c-0.089028 17.297968 13.823843 31.341822 31.100322 31.454386 8.715499 0.042979 16.58984-3.452635 22.296819-9.159614 5.617951-5.615904 9.092076-13.381775 9.157567-21.940708l1.038656-189.146894 192.040804 0.312108c8.650007 0.019443 16.479323-3.474125 22.164812-9.157567 5.662977-5.662977 9.134031-13.472849 9.155521-22.075785C767.127631 496.161267 753.169735 482.159368 735.871767 482.116389z" p-id="11725"></path></svg>